<?xml version="1.0" encoding="utf-8"?>
<!-- Generator: Adobe Illustrator 16.0.0, SVG Export Plug-In . SVG Version: 6.00 Build 0)  -->
<!DOCTYPE svg PUBLIC "-//W3C//DTD SVG 1.1//EN" "http://www.w3.org/Graphics/SVG/1.1/DTD/svg11.dtd">
<svg version="1.1" id="Modo_de_aislamiento" xmlns="http://www.w3.org/2000/svg" xmlns:xlink="http://www.w3.org/1999/xlink"
	 x="0px" y="0px" width="508px" height="166px" viewBox="0 0 508 166" enable-background="new 0 0 508 166" xml:space="preserve">
<g>
	<path fill="#FF3535" d="M144.605,44.498c0.3,0,0.6-0.2,0.6-0.7v-2.1c0-15.201,0-18.001-0.2-21.201c-0.2-3.4-1-5-4.3-5.701
		c-0.8-0.2-2.5-0.3-3.9-0.3c-1.1,0-1.7-0.2-1.7-0.9c0-0.7,0.7-0.9,2.1-0.9c5.4,0,11.701,0.3,14.401,0.3c2.4,0,8.701-0.3,12.601-0.3
		c1.4,0,2.1,0.2,2.1,0.9c0,0.7-0.6,0.9-1.8,0.9c-0.8,0-1.7,0.1-2.9,0.3c-2.7,0.5-3.5,2.2-3.7,5.701c-0.2,3.2-0.2,6-0.2,21.201
		v17.601c0,9.201,0,17.101,0.5,21.401c0.3,2.8,0.9,5,3.9,5.4c1.4,0.2,3.6,0.4,5.101,0.4c1.1,0,1.6,0.3,1.6,0.8c0,0.7-0.8,1-2,1
		c-6.5,0-12.801-0.3-15.601-0.3c-2.3,0-8.601,0.3-12.501,0.3c-1.4,0-2.1-0.3-2.1-1c0-0.5,0.4-0.8,1.6-0.8c1.5,0,2.7-0.2,3.6-0.4
		c2-0.4,2.5-2.601,2.9-5.5c0.5-4.2,0.5-12.101,0.5-21.301v-8.801c0-0.4-0.3-0.6-0.6-0.6h-38.202c-0.3,0-0.6,0.1-0.6,0.6v8.801
		c0,9.201,0,17.101,0.5,21.401c0.3,2.8,0.9,5,3.9,5.4c1.4,0.2,3.6,0.4,5.1,0.4c1.1,0,1.6,0.3,1.6,0.8c0,0.7-0.8,1-2,1
		c-6.5,0-12.801-0.3-15.601-0.3c-2.3,0-8.601,0.3-12.601,0.3c-1.3,0-2-0.3-2-1c0-0.5,0.4-0.8,1.6-0.8c1.5,0,2.7-0.2,3.601-0.4
		c2-0.4,2.5-2.601,2.9-5.5c0.5-4.2,0.5-12.101,0.5-21.301V41.697c0-15.201,0-18.001-0.2-21.201c-0.2-3.4-1-5-4.3-5.701
		c-0.8-0.2-2.5-0.3-3.9-0.3c-1.1,0-1.7-0.2-1.7-0.9c0-0.7,0.7-0.9,2.1-0.9c5.4,0,11.701,0.3,14.401,0.3c2.4,0,8.701-0.3,12.601-0.3
		c1.4,0,2.1,0.2,2.1,0.9c0,0.7-0.6,0.9-1.8,0.9c-0.8,0-1.7,0.1-2.9,0.3c-2.7,0.5-3.5,2.2-3.701,5.701c-0.2,3.2-0.2,6-0.2,21.201v2.1
		c0,0.5,0.3,0.7,0.6,0.7H144.605z"/>
	<path fill="#FF3535" d="M177.9,56.098c0-14.501,10.2-33.302,36.902-33.302c22.201,0,36.002,12.301,36.002,31.802
		c0,19.501-14.201,34.802-36.902,34.802C188.301,89.4,177.9,71.199,177.9,56.098z M237.704,57.698
		c0-18.801-11.301-30.402-25.502-30.402c-9.8,0-21.301,5.2-21.301,26.202c0,17.501,10,31.302,26.602,31.302
		C223.703,84.8,237.704,81.899,237.704,57.698z"/>
	<path fill="#FF3535" d="M280.102,29.196l-13.101,0.3c-5.101,0.1-7.2,0.7-8.501,2.6c-0.899,1.2-1.3,2.3-1.5,2.9
		c-0.2,0.7-0.399,1.1-1,1.1c-0.6,0-0.8-0.5-0.8-1.4c0-1.4,1.7-9.601,1.9-10.301c0.199-1.1,0.5-1.6,1-1.6c0.7,0,1.6,0.7,3.8,1
		c2.601,0.3,5.9,0.4,8.801,0.4h35.702c2.8,0,4.7-0.2,6-0.4c1.4-0.2,2.101-0.4,2.4-0.4c0.6,0,0.7,0.5,0.7,1.8
		c0,1.8-0.2,8.101-0.2,10.3c-0.1,0.9-0.3,1.4-0.8,1.4c-0.7,0-0.9-0.4-1-1.7l-0.101-0.9c-0.2-2.2-2.5-4.8-10.4-4.9l-11.101-0.2
		v34.402c0,7.8,0.1,14.501,0.5,18.201c0.3,2.4,0.8,4,3.4,4.4c1.2,0.2,3.2,0.3,4.5,0.3c1,0,1.4,0.5,1.4,0.9c0,0.6-0.7,0.9-1.7,0.9
		c-5.801,0-11.701-0.3-14.201-0.3c-2,0-8,0.3-11.501,0.3c-1.1,0-1.699-0.3-1.699-0.9c0-0.4,0.3-0.9,1.399-0.9
		c1.301,0,2.4-0.1,3.101-0.3c1.8-0.4,2.3-2,2.6-4.5c0.4-3.6,0.4-10.301,0.4-18.101V29.196z"/>
	<path fill="#FF3535" d="M331.701,48.598c0-12.901,0-15.301-0.101-18.001c-0.2-2.9-1-3.8-3.8-4.601c-0.7-0.2-2.2-0.3-3.501-0.3
		c-0.899,0-1.5-0.3-1.5-0.9c0-0.6,0.7-0.8,2-0.8c4.601,0,10.201,0.2,12.701,0.2c2.8,0,22.302,0.1,24.002,0c1.6-0.1,3-0.4,3.7-0.5
		c0.5-0.1,1-0.4,1.399-0.4c0.5,0,0.601,0.4,0.601,0.8c0,0.6-0.5,1.6-0.7,5.5c-0.101,0.9-0.3,4.6-0.5,5.6c-0.101,0.4-0.3,1.4-1,1.4
		c-0.601,0-0.7-0.4-0.7-1.1c0-0.6-0.1-2.1-0.6-3.1c-0.7-1.5-1.4-2.7-5.801-3.1c-1.5-0.2-12.001-0.4-13.801-0.4
		c-0.4,0-0.601,0.3-0.601,0.8v21.001c0,0.5,0.101,0.9,0.601,0.9c2,0,13.4,0,15.4-0.2c2.101-0.2,3.301-0.5,4.201-1.3
		c0.699-0.6,1-1.1,1.399-1.1c0.4,0,0.7,0.4,0.7,0.9s-0.2,1.9-0.7,6.201c-0.2,1.7-0.399,5.1-0.399,5.7c0,0.7-0.101,1.9-0.9,1.9
		c-0.601,0-0.8-0.3-0.8-0.7c-0.101-0.9-0.101-2-0.301-3.1c-0.5-1.7-1.6-3-4.899-3.3c-1.601-0.2-11.602-0.4-13.802-0.4
		c-0.399,0-0.5,0.4-0.5,0.9v6.8c0,2.9-0.1,10.101,0,12.601c0.2,5.8,2.9,7.1,11.901,7.1c2.3,0,6-0.1,8.301-1.1
		c2.199-1,3.199-2.8,3.8-6.3c0.2-0.9,0.4-1.3,1-1.3c0.7,0,0.8,1.1,0.8,2c0,1.9-0.7,7.7-1.2,9.4c-0.6,2.2-1.399,2.2-4.7,2.2
		c-6.601,0-11.9-0.1-16.201-0.3c-4.3-0.1-7.6-0.2-10.2-0.2c-1,0-2.9,0.1-5,0.1c-2.101,0.1-4.301,0.2-6.101,0.2
		c-1.101,0-1.7-0.3-1.7-0.9c0-0.4,0.3-0.9,1.4-0.9c1.3,0,2.3-0.1,3.1-0.3c1.801-0.4,2.301-2,2.601-4.5
		c0.4-3.6,0.4-10.301,0.4-18.101V48.598z"/>
	<path fill="#FF3535" d="M399.102,63.599c0,10.9,0,16.301,1.9,17.901c1.5,1.3,4.9,1.8,11.701,1.8c4.7,0,8.101-0.1,10.301-2.4
		c1.1-1.1,2-3.5,2.199-5.1c0.101-0.8,0.301-1.3,1.001-1.3c0.6,0,0.8,0.9,0.8,1.9s-0.601,7.3-1.301,9.8c-0.6,1.9-1,2.3-5.6,2.3
		c-6.301,0-11.401-0.1-15.801-0.3c-4.4-0.1-8.101-0.2-11.701-0.2c-1,0-2.9,0.1-5,0.1c-2.101,0.1-4.301,0.2-6.101,0.2
		c-1.101,0-1.7-0.3-1.7-0.9c0-0.4,0.3-0.9,1.4-0.9c1.3,0,2.3-0.1,3.1-0.3c1.801-0.4,2.301-2,2.601-4.5
		c0.399-3.6,0.399-10.301,0.399-18.101V48.598c0-12.901,0-15.301-0.1-18.001c-0.2-2.9-1-3.8-3.8-4.601c-0.7-0.2-1.801-0.3-2.9-0.3
		c-1,0-1.5-0.3-1.5-0.9c0-0.6,0.6-0.8,1.899-0.8c4.101,0,9.701,0.2,12.102,0.2c2.1,0,9.3-0.2,12.7-0.2c1.301,0,1.9,0.2,1.9,0.8
		c0,0.6-0.5,0.9-1.601,0.9c-1,0-2.399,0.1-3.399,0.3c-2.4,0.4-3.101,1.6-3.301,4.601c-0.2,2.7-0.2,5.1-0.2,18.001V63.599z"/>
	<path fill="#0068BA" d="M29.627,112.661c0-10.945,0-12.961-0.144-15.265c-0.144-2.448-0.72-3.601-3.096-4.104
		c-0.576-0.144-1.8-0.216-2.808-0.216c-0.792,0-1.224-0.144-1.224-0.648c0-0.504,0.504-0.648,1.584-0.648
		c3.816,0,8.353,0.216,9.865,0.216c2.448,0,7.921-0.216,10.153-0.216c4.537,0,9.361,0.432,13.249,3.096
		c2.017,1.368,4.896,5.041,4.896,9.865c0,5.329-2.232,10.225-9.505,16.129c6.409,8.065,11.377,14.475,15.625,18.938
		c4.032,4.177,6.985,4.681,8.065,4.896c0.792,0.144,1.44,0.216,2.016,0.216s0.864,0.216,0.864,0.576c0,0.576-0.504,0.72-1.368,0.72
		h-6.84c-4.032,0-5.833-0.36-7.705-1.368c-3.096-1.656-5.833-5.04-9.865-10.584c-2.88-3.961-6.193-8.857-7.129-9.938
		c-0.36-0.432-0.792-0.504-1.296-0.504l-6.265-0.145c-0.36,0-0.576,0.145-0.576,0.576v1.008c0,6.697,0,12.386,0.36,15.41
		c0.216,2.088,0.648,3.672,2.808,3.96c1.08,0.144,2.664,0.288,3.528,0.288c0.576,0,0.864,0.216,0.864,0.576
		c0,0.504-0.504,0.72-1.44,0.72c-4.176,0-9.505-0.216-10.585-0.216c-1.368,0-5.904,0.216-8.785,0.216c-0.936,0-1.44-0.216-1.44-0.72
		c0-0.36,0.288-0.576,1.152-0.576c1.08,0,1.944-0.145,2.592-0.288c1.44-0.288,1.8-1.872,2.088-3.96
		c0.36-3.024,0.36-8.713,0.36-15.338V112.661z M38.124,118.35c0,0.792,0.144,1.08,0.648,1.296c1.512,0.505,3.672,0.72,5.473,0.72
		c2.88,0,3.816-0.287,5.112-1.224c2.16-1.584,4.249-4.896,4.249-10.801c0-10.225-6.769-13.177-11.017-13.177
		c-1.8,0-3.096,0.072-3.816,0.288c-0.504,0.144-0.648,0.432-0.648,1.008V118.35z"/>
	<path fill="#0068BA" d="M82.547,117.629c0-9.289,0-11.017-0.072-12.961c-0.144-2.088-0.72-2.736-2.736-3.312
		c-0.504-0.144-1.584-0.216-2.52-0.216c-0.648,0-1.08-0.216-1.08-0.648s0.504-0.576,1.44-0.576c3.312,0,7.345,0.144,9.145,0.144
		c2.016,0,16.057,0.072,17.281,0c1.152-0.072,2.16-0.288,2.665-0.36c0.36-0.072,0.72-0.288,1.008-0.288
		c0.36,0,0.432,0.288,0.432,0.576c0,0.432-0.36,1.152-0.504,3.96c-0.072,0.648-0.216,3.312-0.36,4.032
		c-0.072,0.288-0.216,1.008-0.72,1.008c-0.432,0-0.504-0.288-0.504-0.792c0-0.432-0.072-1.512-0.432-2.232
		c-0.504-1.08-1.008-1.944-4.177-2.232c-1.08-0.144-8.641-0.288-9.937-0.288c-0.288,0-0.432,0.216-0.432,0.576v15.121
		c0,0.36,0.072,0.648,0.432,0.648c1.44,0,9.648,0,11.089-0.144c1.512-0.144,2.376-0.36,3.024-0.936
		c0.504-0.432,0.72-0.792,1.008-0.792s0.504,0.288,0.504,0.648c0,0.36-0.144,1.368-0.504,4.464
		c-0.144,1.225-0.288,3.673-0.288,4.105c0,0.504-0.072,1.367-0.648,1.367c-0.432,0-0.576-0.215-0.576-0.504
		c-0.072-0.647-0.072-1.439-0.216-2.232c-0.36-1.224-1.152-2.16-3.528-2.375c-1.152-0.145-8.353-0.289-9.937-0.289
		c-0.288,0-0.36,0.289-0.36,0.648v4.896c0,2.088-0.072,7.272,0,9.072c0.144,4.177,2.088,5.113,8.569,5.113
		c1.656,0,4.32-0.072,5.977-0.793c1.584-0.719,2.304-2.016,2.736-4.535c0.144-0.648,0.288-0.937,0.72-0.937
		c0.504,0,0.576,0.792,0.576,1.44c0,1.367-0.504,5.544-0.864,6.768c-0.432,1.584-1.008,1.584-3.384,1.584
		c-4.752,0-8.569-0.071-11.665-0.215c-3.096-0.072-5.472-0.145-7.345-0.145c-0.72,0-2.088,0.072-3.6,0.072
		c-1.512,0.072-3.096,0.144-4.393,0.144c-0.792,0-1.224-0.216-1.224-0.647c0-0.289,0.216-0.648,1.008-0.648
		c0.936,0,1.656-0.072,2.232-0.216c1.296-0.288,1.656-1.44,1.873-3.241c0.288-2.592,0.288-7.416,0.288-13.032V117.629z"/>
	<path fill="#0068BA" d="M120.562,145.424c-1.008-0.432-1.224-0.72-1.224-2.088c0-3.312,0.288-7.129,0.36-8.137
		c0-0.936,0.288-1.584,0.792-1.584c0.576,0,0.648,0.576,0.648,1.008c0,0.792,0.216,2.088,0.576,3.168
		c1.368,4.537,6.12,6.049,10.081,6.049c5.473,0,8.785-3.457,8.785-7.777c0-2.664-0.648-5.328-6.264-8.641l-3.672-2.16
		c-7.489-4.393-9.937-8.496-9.937-13.896c0-7.489,7.201-12.313,15.985-12.313c4.104,0,7.345,0.576,9.001,1.008
		c0.576,0.144,0.864,0.36,0.864,0.792c0,0.792-0.216,2.52-0.216,7.345c0,1.296-0.288,1.944-0.792,1.944
		c-0.432,0-0.648-0.36-0.648-1.08c0-0.576-0.288-2.448-1.656-4.033c-0.936-1.152-2.953-2.88-7.057-2.88
		c-4.537,0-8.641,2.376-8.641,6.552c0,2.736,1.008,4.896,6.697,8.065l2.592,1.44c8.353,4.609,10.945,9.289,10.945,14.833
		c0,4.536-1.728,8.209-6.336,11.449c-3.024,2.16-7.201,2.52-10.585,2.52C127.186,147.008,123.298,146.648,120.562,145.424z"/>
	<path fill="#0068BA" d="M155.984,123.029c0-10.44,7.345-23.978,26.57-23.978c15.985,0,25.923,8.857,25.923,22.897
		c0,14.042-10.226,25.059-26.57,25.059C163.473,147.008,155.984,133.902,155.984,123.029z M199.044,124.182
		c0-13.537-8.137-21.89-18.361-21.89c-7.057,0-15.337,3.745-15.337,18.866c0,12.601,7.201,22.537,19.154,22.537
		C188.964,143.695,199.044,141.607,199.044,124.182z"/>
	<path fill="#0068BA" d="M220.281,117.629c0-9.289,0-11.017-0.072-12.961c-0.144-2.088-0.72-2.736-2.736-3.312
		c-0.504-0.144-1.584-0.216-2.521-0.216c-0.647,0-1.08-0.216-1.08-0.648s0.505-0.576,1.44-0.576c3.312,0,7.345,0.144,8.641,0.144
		c2.16,0,7.921-0.144,9.865-0.144c4.032,0,8.641,0.36,12.024,2.592c1.801,1.224,4.465,4.32,4.465,8.425
		c0,4.536-2.592,8.569-8.785,13.538c5.617,6.912,10.081,12.457,13.897,16.273c3.528,3.527,5.761,3.816,6.769,4.031
		c0.648,0.145,1.008,0.145,1.513,0.145c0.504,0,0.792,0.359,0.792,0.648c0,0.504-0.433,0.647-1.225,0.647h-6.049
		c-3.528,0-5.256-0.36-6.912-1.224c-2.736-1.368-5.112-4.248-8.641-9.001c-2.521-3.312-5.185-7.417-5.977-8.353
		c-0.36-0.36-0.72-0.432-1.152-0.432l-5.688-0.145c-0.288,0-0.504,0.145-0.504,0.504v0.864c0,5.688,0.072,10.44,0.36,13.032
		c0.216,1.801,0.504,2.953,2.448,3.241c0.936,0.144,2.304,0.216,3.096,0.216c0.504,0,0.792,0.359,0.792,0.648
		c0,0.432-0.504,0.647-1.296,0.647c-3.672,0-8.929-0.216-9.865-0.216c-1.224,0-5.256,0.216-7.776,0.216
		c-0.792,0-1.224-0.216-1.224-0.647c0-0.289,0.216-0.648,1.008-0.648c0.936,0,1.656-0.072,2.232-0.216
		c1.296-0.288,1.656-1.44,1.872-3.241c0.288-2.592,0.288-7.416,0.288-13.032V117.629z M228.346,122.382
		c0,0.647,0.144,0.864,0.576,1.08c1.368,0.433,3.24,0.576,4.824,0.576c2.521,0,3.385-0.216,4.465-1.009
		c1.943-1.367,4.104-4.032,4.104-9.072c0-8.641-5.904-10.873-9.648-10.873c-1.584,0-3.097,0.072-3.744,0.216
		c-0.433,0.144-0.576,0.36-0.576,0.864V122.382z"/>
	<path fill="#0068BA" d="M275.362,103.66l-9.434,0.216c-3.672,0.072-5.184,0.504-6.12,1.872c-0.648,0.864-0.936,1.656-1.08,2.088
		c-0.144,0.504-0.288,0.792-0.72,0.792c-0.433,0-0.576-0.36-0.576-1.008c0-1.008,1.224-6.913,1.368-7.417
		c0.144-0.792,0.359-1.152,0.72-1.152c0.504,0,1.152,0.504,2.736,0.72c1.872,0.216,4.248,0.288,6.337,0.288H294.3
		c2.016,0,3.384-0.144,4.32-0.288c1.008-0.144,1.512-0.288,1.728-0.288c0.433,0,0.505,0.36,0.505,1.296
		c0,1.296-0.145,5.833-0.145,7.417c-0.072,0.648-0.216,1.008-0.576,1.008c-0.504,0-0.647-0.288-0.72-1.224l-0.072-0.648
		c-0.144-1.584-1.8-3.456-7.488-3.528l-7.993-0.144v24.771c0,5.616,0.072,10.44,0.36,13.104c0.216,1.729,0.576,2.881,2.448,3.169
		c0.864,0.144,2.304,0.216,3.24,0.216c0.72,0,1.008,0.359,1.008,0.648c0,0.432-0.504,0.647-1.224,0.647
		c-4.177,0-8.425-0.216-10.225-0.216c-1.44,0-5.761,0.216-8.281,0.216c-0.792,0-1.224-0.216-1.224-0.647
		c0-0.289,0.216-0.648,1.008-0.648c0.936,0,1.728-0.072,2.232-0.216c1.296-0.288,1.656-1.44,1.872-3.241
		c0.288-2.592,0.288-7.416,0.288-13.032V103.66z"/>
	<path fill="#FF3535" d="M318.057,114.245c-3.024-4.032-3.6-6.984-3.672-10.225c-0.072-5.688,4.969-13.25,17.497-13.25
		c3.528,0,6.769,0.72,8.713,1.512c1.225,0.432,1.225,1.008,1.225,1.872c0,2.376-0.576,8.137-0.792,9.217
		c-0.145,1.081-0.433,1.224-0.864,1.224c-0.433,0-0.504-0.288-0.504-1.368c0-1.873-0.505-4.177-2.089-6.049
		c-1.439-1.728-3.96-3.24-7.992-3.24c-3.024,0-7.705,2.088-7.705,8.209c0,6.769,6.192,12.529,11.953,18.938
		c2.448,2.809,11.305,10.801,12.673,12.025c1.44-2.017,3.457-6.697,3.457-11.09c0-1.08-0.288-2.376-1.368-3.312
		c-0.937-0.864-2.448-1.08-3.528-1.08c-0.433,0-0.864-0.144-0.864-0.576c0-0.576,0.576-0.72,1.152-0.72
		c1.728,0,4.608,0.072,8.641,0.504c1.368,0.144,2.448,0.576,2.448,1.44c0,5.544-2.952,12.241-7.057,17.066
		c4.824,3.959,8.064,5.904,10.009,7.057c2.304,1.367,6.265,2.52,7.704,2.52c0.648,0,1.009,0.072,1.009,0.648
		c0,0.432-0.576,0.647-2.16,0.647h-5.545c-8.209,0-10.801-0.792-16.993-5.544c-2.376,2.16-7.201,6.553-17.065,6.553
		c-15.409,0-20.018-9.649-20.018-15.914C306.32,122.887,313.736,116.333,318.057,114.245z M340.595,138.367
		c-4.176-3.6-11.089-10.369-12.961-12.385s-6.48-7.201-7.705-9.001c-2.448,1.8-4.968,5.185-4.968,10.944
		c0,9.002,6.336,14.762,13.825,14.762C334.33,142.688,339.083,139.808,340.595,138.367z"/>
	<path fill="#0068BA" d="M369.751,145.352c-1.152-0.504-1.368-0.863-1.368-2.447c0-3.961,0.288-8.281,0.36-9.434
		c0.071-1.08,0.288-1.872,0.864-1.872c0.647,0,0.72,0.647,0.72,1.224c0,0.937,0.288,2.449,0.648,3.673
		c1.584,5.329,5.832,7.272,10.297,7.272c6.48,0,9.648-4.393,9.648-8.209c0-3.527-1.08-6.84-7.057-11.521l-3.312-2.593
		c-7.921-6.192-10.656-11.232-10.656-17.065c0-7.92,6.624-13.609,16.633-13.609c4.681,0,7.705,0.72,9.577,1.224
		c0.647,0.144,1.008,0.36,1.008,0.864c0,0.936-0.288,3.024-0.288,8.641c0,1.584-0.216,2.16-0.792,2.16
		c-0.504,0-0.72-0.432-0.72-1.296c0-0.648-0.36-2.88-1.872-4.752c-1.08-1.368-3.169-3.528-7.849-3.528
		c-5.329,0-8.569,3.096-8.569,7.417c0,3.312,1.656,5.833,7.633,10.369l2.017,1.512c8.712,6.552,11.809,11.521,11.809,18.361
		c0,4.177-1.584,9.146-6.769,12.529c-3.601,2.305-7.633,2.953-11.449,2.953C376.088,147.225,372.848,146.721,369.751,145.352z"/>
	<path fill="#0068BA" d="M412.735,117.629c0-9.289,0-11.017-0.072-12.961c-0.144-2.088-0.72-2.736-2.736-3.312
		c-0.504-0.144-1.584-0.216-2.521-0.216c-0.647,0-1.08-0.216-1.08-0.648s0.505-0.576,1.44-0.576c3.312,0,7.345,0.144,9.145,0.144
		c2.593,0,7.633-0.144,10.514-0.144c7.92,0,10.801,2.592,11.809,3.456c1.368,1.296,3.168,4.033,3.168,7.345
		c0,8.641-6.912,14.834-15.913,14.834c-0.288,0-1.584,0-1.872-0.072c-0.36,0-0.792-0.217-0.792-0.648
		c0-0.504,0.72-0.792,2.088-0.792c3.528,0,8.497-3.673,8.497-9.937c0-2.016-0.216-6.048-3.744-9.073
		c-2.305-2.016-4.896-2.304-6.337-2.304c-0.937,0-2.16,0.072-2.736,0.288c-0.36,0.144-0.504,0.504-0.504,1.152v24.266
		c0,5.616,0,10.44,0.288,13.104c0.216,1.729,0.576,2.881,2.448,3.169c0.936,0.144,2.304,0.216,3.24,0.216
		c0.72,0,1.008,0.359,1.008,0.648c0,0.432-0.504,0.647-1.152,0.647c-4.248,0-8.712-0.216-10.368-0.216
		c-1.44,0-5.473,0.216-7.993,0.216c-0.792,0-1.224-0.216-1.224-0.647c0-0.289,0.216-0.648,1.008-0.648
		c0.937,0,1.656-0.072,2.232-0.216c1.296-0.288,1.656-1.44,1.872-3.241c0.288-2.592,0.288-7.416,0.288-13.032V117.629z"/>
	<path fill="#0068BA" d="M454.784,130.734c-0.36,0-0.433,0.072-0.576,0.432l-3.385,8.281c-0.647,1.512-0.936,3.024-0.936,3.744
		c0,1.08,0.576,1.729,2.52,1.729h0.937c0.792,0,0.937,0.288,0.937,0.648c0,0.504-0.36,0.647-1.009,0.647
		c-2.088,0-5.04-0.216-7.057-0.216c-0.647,0-4.032,0.216-7.345,0.216c-0.792,0-1.151-0.144-1.151-0.647
		c0-0.36,0.216-0.648,0.72-0.648c0.576,0,1.296-0.072,1.872-0.072c2.88-0.432,3.96-2.304,5.257-5.4l16.562-38.235
		c0.72-1.728,1.224-2.448,1.872-2.448c0.936,0,1.224,0.576,1.872,1.944c1.512,3.384,12.097,28.154,16.129,37.443
		c2.448,5.544,4.249,6.337,5.4,6.553c0.937,0.144,1.656,0.216,2.377,0.216c0.575,0,0.863,0.216,0.863,0.648
		c0,0.504-0.359,0.647-2.736,0.647c-2.231,0-6.84,0-12.169-0.144c-1.151-0.072-1.872-0.072-1.872-0.504
		c0-0.36,0.145-0.576,0.792-0.648c0.433-0.072,0.864-0.648,0.576-1.368l-4.896-12.386c-0.144-0.359-0.359-0.432-0.647-0.432H454.784
		z M468.321,127.351c0.288,0,0.359-0.144,0.288-0.36l-5.977-15.337c-0.072-0.216-0.145-0.576-0.288-0.576
		c-0.216,0-0.288,0.36-0.36,0.576l-6.12,15.265c-0.145,0.289,0,0.433,0.216,0.433H468.321z"/>
</g>
</svg>
